# xmcd
#
# Track frame offsets:
#	150
#	1676
#	10816
#	17503
#	28170
#	36822
#	44798
#	54726
#	65273
#	72534
#	78807
#
# Disc length: 1146 seconds
#
# Revision: 0
# Processed by: cddbd v1.5.2PL0 Copyright (c) Steve Scherf et al.
# Submitted via: EasyCDDAExtractor 10.0.6.1
#
DISCID=8504780b
DTITLE=Anssi 8000 - Svesse
DYEAR=2007
DGENRE=Acoustic
TTITLE0=Intro
TTITLE1=Save Me
TTITLE2=Daddy On The Phone
TTITLE3=Hoax
TTITLE4=Getting In The Easy Way
TTITLE5=Rabbit Glove
TTITLE6=Construction Work
TTITLE7=Guantanamo
TTITLE8=Burning Heart
TTITLE9=Endorsement Money
TTITLE10=Fist The Size Of The World
EXTD=
EXTT0=
EXTT1=
EXTT2=
EXTT3=
EXTT4=
EXTT5=
EXTT6=
EXTT7=
EXTT8=
EXTT9=
EXTT10=
PLAYORDER=
